<?xml version="1.0" encoding="UTF-8"?>
<svg xmlns="http://www.w3.org/2000/svg" xmlns:xlink="http://www.w3.org/1999/xlink" width="50pt" height="50pt" viewBox="0 0 50 50" version="1.1">
<g id="surface1">
<path style=" stroke:none;fill-rule:nonzero;fill:rgb(21.568627%,27.843137%,30.980392%);fill-opacity:1;" d="M 41.753906 10.023438 C 39.765625 4.988281 34.851562 1.425781 29.109375 1.425781 C 24.089844 1.425781 19.761719 4.175781 17.351562 8.191406 C 16.6875 9.296875 15.457031 10.019531 14.074219 10.019531 L 10.984375 21.5625 C 10.984375 25.117188 12.214844 28.382812 14.269531 30.964844 C 14.050781 34.742188 13.460938 38.425781 12.527344 41.964844 C 12.441406 42.304688 12.144531 42.554688 11.796875 42.570312 C 11.484375 42.582031 11.179688 42.621094 10.875 42.683594 C 10.035156 42.851562 9.40625 43.574219 9.386719 44.453125 C 9.371094 45.386719 10.148438 46.125 11.074219 46.21875 C 11.613281 46.273438 12.152344 46.292969 12.6875 46.285156 C 14.230469 46.253906 15.570312 45.21875 16.105469 43.773438 C 17.980469 38.710938 19.195312 33.328125 19.636719 27.726562 C 19.636719 27.726562 25.535156 26.359375 29.214844 22.480469 C 31.15625 24.488281 32.402344 27.199219 32.554688 30.214844 C 32.675781 32.640625 33.003906 39.445312 33.15625 42.621094 C 33.171875 42.984375 32.941406 43.296875 32.597656 43.414062 C 32.03125 43.609375 31.472656 43.832031 30.921875 44.09375 C 30.390625 44.34375 30.03125 44.851562 29.972656 45.4375 C 29.972656 45.445312 29.972656 45.453125 29.972656 45.460938 C 29.890625 46.3125 30.523438 47.085938 31.375 47.183594 C 33.25 47.402344 35.15625 47.292969 36.996094 46.847656 Z M 41.753906 10.023438 "/>
<path style=" stroke:none;fill-rule:nonzero;fill:rgb(12.941176%,12.941176%,12.941176%);fill-opacity:1;" d="M 49.097656 24.820312 C 48.734375 24.578125 48.324219 24.121094 48.367188 23.640625 C 48.453125 22.617188 48.570312 21.597656 48.6875 20.566406 C 48.929688 18.457031 49.179688 16.28125 49.191406 14.027344 C 49.207031 11.199219 47.171875 8.667969 44.375 8.25 C 43.332031 8.09375 42.335938 8.226562 41.449219 8.578125 C 40.660156 8.886719 39.78125 8.589844 39.226562 7.949219 C 36.59375 4.921875 32.671875 3 28.355469 3 C 23.925781 3 19.722656 4.835938 17.351562 8.191406 C 16.609375 9.246094 15.460938 10.019531 14.074219 10.019531 L 11.363281 22.175781 C 12.058594 26.375 14.6875 29.917969 18.304688 31.871094 C 18.179688 35.835938 17.796875 39.738281 17.140625 43.546875 C 17.074219 43.925781 16.75 44.21875 16.363281 44.21875 C 15.835938 44.21875 15.3125 44.269531 14.796875 44.375 C 13.921875 44.550781 13.265625 45.273438 13.171875 46.160156 L 13.171875 46.191406 C 13.074219 47.148438 13.675781 48.054688 14.601562 48.304688 C 15.734375 48.609375 16.917969 48.65625 18.066406 48.453125 C 18.792969 48.328125 19.402344 47.820312 19.703125 47.144531 C 22.203125 41.566406 23.898438 35.554688 24.648438 29.25 C 27.039062 28.082031 29.101562 26.351562 30.660156 24.226562 C 32.59375 24.972656 34.03125 26.773438 34.277344 28.988281 C 34.804688 33.785156 35.28125 38.628906 35.503906 43.535156 C 35.515625 43.851562 35.34375 44.136719 35.070312 44.289062 C 34.492188 44.617188 33.960938 45.015625 33.488281 45.476562 C 33.234375 45.726562 33.0625 46.058594 33.003906 46.410156 C 33 46.441406 32.996094 46.472656 32.992188 46.503906 C 32.832031 47.554688 33.679688 48.5 34.746094 48.546875 C 35.71875 48.585938 36.699219 48.574219 37.671875 48.507812 C 38.777344 48.433594 39.683594 47.585938 39.835938 46.488281 C 40.488281 41.761719 40.886719 36.988281 41.023438 32.175781 C 41.074219 30.226562 41.28125 28.289062 41.597656 26.367188 C 42.09375 23.382812 42.511719 20.347656 42.59375 17.257812 C 42.59375 17.183594 42.585938 17.113281 42.585938 17.042969 C 43.296875 14.96875 44.238281 12.695312 44.460938 13.191406 C 45 14.40625 44.894531 18.058594 44.65625 20.105469 C 44.535156 21.171875 44.414062 22.234375 44.324219 23.292969 C 44.164062 25.171875 45.128906 27.050781 46.847656 28.195312 C 47.191406 28.425781 47.582031 28.535156 47.96875 28.535156 C 48.625 28.535156 49.269531 28.21875 49.660156 27.632812 C 50.28125 26.699219 50.027344 25.441406 49.097656 24.820312 Z M 49.097656 24.820312 "/>
<path style=" stroke:none;fill-rule:nonzero;fill:rgb(32.941176%,43.137255%,47.843137%);fill-opacity:1;" d="M 2.242188 16.375 C 1.089844 14.28125 0.433594 11.875 0.433594 9.316406 C 0.433594 9.316406 1.621094 11.671875 3.652344 12.84375 C 3.652344 12.847656 2.625 13.714844 2.242188 16.375 Z M 2.242188 16.375 "/>
<path style=" stroke:none;fill-rule:nonzero;fill:rgb(21.568627%,27.843137%,30.980392%);fill-opacity:1;" d="M 9.359375 10.574219 C 8.078125 11.6875 6.3125 11.960938 4.699219 11.433594 C 2.183594 10.605469 0.878906 8.765625 0.773438 6.703125 C 0.753906 6.355469 0.277344 6.308594 0.191406 6.648438 C -0.140625 7.953125 -0.0507812 9.378906 0.550781 10.699219 C 1.914062 13.695312 5.375 15.074219 8.402344 13.882812 C 11.289062 12.746094 10.644531 9.453125 9.359375 10.574219 Z M 9.359375 10.574219 "/>
<path style=" stroke:none;fill-rule:nonzero;fill:rgb(45.882353%,45.882353%,45.882353%);fill-opacity:1;" d="M 20.820312 12.6875 C 20.820312 9.828125 21.632812 7.160156 23.035156 4.898438 L 15.875 9.046875 Z M 20.820312 12.6875 "/>
<path style=" stroke:none;fill-rule:nonzero;fill:rgb(14.901961%,19.607843%,21.960784%);fill-opacity:1;" d="M 23.195312 4.386719 C 20.507812 5.871094 17.578125 6.964844 14.484375 7.621094 C 13.425781 7.203125 12.265625 6.96875 11.054688 6.96875 C 6.1875 6.96875 2.195312 10.699219 1.765625 15.457031 C 1.335938 16.121094 1.082031 16.910156 1.082031 17.757812 C 1.082031 19.910156 2.683594 21.667969 4.75 21.957031 C 6.039062 22.746094 7.246094 23.652344 8.359375 24.664062 C 9.027344 25.269531 9.902344 25.605469 10.800781 25.628906 C 10.886719 25.632812 10.96875 25.632812 11.054688 25.632812 C 11.570312 25.632812 12.070312 25.589844 12.5625 25.511719 C 12.8125 25.46875 13.035156 25.320312 13.179688 25.109375 C 13.792969 24.195312 14.316406 23.210938 14.742188 22.175781 C 14.929688 21.730469 15.371094 21.445312 15.855469 21.484375 C 18.480469 21.710938 20.992188 20.078125 21.773438 17.453125 C 22.515625 14.960938 21.378906 12.488281 19.367188 11.03125 C 18.667969 10.523438 17.511719 9.5 16.667969 8.859375 C 19.199219 7.933594 21.5 6.527344 23.457031 4.746094 C 23.648438 4.566406 23.425781 4.261719 23.195312 4.386719 Z M 23.195312 4.386719 "/>
<path style=" stroke:none;fill-rule:nonzero;fill:rgb(95.686275%,26.27451%,21.176471%);fill-opacity:1;" d="M 6.179688 19.828125 C 7.34375 20.691406 8.3125 21.804688 8.992188 23.097656 C 9.152344 23.402344 9.484375 23.585938 9.820312 23.519531 C 10.359375 23.40625 10.882812 23.253906 11.382812 23.058594 C 11.898438 22.859375 12.265625 22.40625 12.398438 21.867188 C 12.703125 20.625 13.132812 19.433594 13.671875 18.304688 C 13.910156 17.800781 13.375 17.292969 12.882812 17.554688 C 11.265625 18.410156 9.4375 18.835938 7.585938 18.765625 C 7.0625 19.046875 6.589844 19.40625 6.179688 19.828125 Z M 6.179688 19.828125 "/>
<path style=" stroke:none;fill-rule:nonzero;fill:rgb(100%,100%,100%);fill-opacity:1;" d="M 10.097656 18.550781 C 10.25 19.121094 10.308594 19.738281 10.230469 20.285156 C 10.199219 20.507812 10.066406 20.679688 10.066406 20.679688 C 9.996094 19.988281 9.597656 19.332031 9.320312 18.679688 C 9.582031 18.644531 9.839844 18.601562 10.097656 18.550781 Z M 7.234375 20.925781 C 7.339844 21.039062 7.613281 21.25 7.613281 21.25 C 7.363281 20.5625 7.285156 19.769531 7.144531 19.046875 C 6.914062 19.203125 6.691406 19.371094 6.484375 19.558594 C 6.65625 20.0625 6.894531 20.546875 7.234375 20.925781 Z M 7.234375 20.925781 "/>
<path style=" stroke:none;fill-rule:nonzero;fill:rgb(45.882353%,45.882353%,45.882353%);fill-opacity:1;" d="M 7.6875 18.382812 C 7.6875 18.109375 7.742188 17.847656 7.839844 17.605469 C 8.054688 17.074219 7.921875 16.941406 7.613281 16.886719 C 6.933594 16.761719 7.050781 17.355469 6.484375 17.175781 C 6.363281 17.136719 6.238281 17.148438 6.132812 17.210938 C 5.828125 17.382812 5.828125 17.632812 6.230469 17.917969 C 6.519531 18.121094 6.773438 18.371094 6.945312 18.679688 C 7.222656 19.179688 7.6875 18.703125 7.6875 18.382812 Z M 7.6875 18.382812 "/>
<path style=" stroke:none;fill-rule:nonzero;fill:rgb(100%,93.333333%,34.509804%);fill-opacity:1;" d="M 6.230469 15.804688 C 5.816406 15.058594 5.472656 14.421875 4.535156 14.421875 C 4.199219 14.421875 3.878906 14.480469 3.582031 14.59375 C 3.257812 14.714844 3.042969 15.023438 3 15.367188 L 2.921875 15.957031 C 2.902344 16.136719 3.066406 16.273438 3.238281 16.222656 C 4.214844 15.929688 5.222656 15.792969 6.230469 15.804688 Z M 6.230469 15.804688 "/>
<path style=" stroke:none;fill-rule:nonzero;fill:rgb(0%,89.803922%,100%);fill-opacity:1;" d="M 12.871094 12.683594 C 12.480469 12.390625 11.355469 11.941406 10.214844 12.496094 C 9.789062 12.703125 9.464844 13.0625 9.277344 13.496094 C 9.074219 13.972656 8.929688 14.472656 8.851562 14.992188 C 10.398438 14.773438 11.855469 13.984375 12.871094 12.683594 Z M 12.871094 12.683594 "/>
</g>
</svg>
