<?xml version="1.0" encoding="UTF-8" standalone="no"?>
<svg
   xmlns:dc="http://purl.org/dc/elements/1.1/"
   xmlns:cc="http://creativecommons.org/ns#"
   xmlns:rdf="http://www.w3.org/1999/02/22-rdf-syntax-ns#"
   xmlns:svg="http://www.w3.org/2000/svg"
   xmlns="http://www.w3.org/2000/svg"
   xmlns:sodipodi="http://sodipodi.sourceforge.net/DTD/sodipodi-0.dtd"
   xmlns:inkscape="http://www.inkscape.org/namespaces/inkscape"
   sodipodi:docname="firmakkkkkk.svg"
   inkscape:version="1.0 (4035a4fb49, 2020-05-01)"
   width="420.0mm"
   height="297.0mm"
   viewBox="0 0 420.0 297.0"
   version="1.1"
   id="SVGRoot">
  <defs
     id="defs10" />
  <sodipodi:namedview
     inkscape:window-maximized="0"
     inkscape:window-y="0"
     inkscape:window-x="50"
     inkscape:window-height="728"
     inkscape:window-width="1300"
     showgrid="false"
     inkscape:document-rotation="0"
     inkscape:current-layer="layer1"
     inkscape:document-units="mm"
     inkscape:cy="561.25984"
     inkscape:cx="793.70079"
     inkscape:zoom="0.4792789"
     inkscape:pageshadow="2"
     inkscape:pageopacity="0.0"
     borderopacity="1.0"
     bordercolor="#666666"
     pagecolor="#ffffff"
     id="base" />
  <metadata
     id="metadata13">
    <rdf:RDF>
      <cc:Work
         rdf:about="">
        <dc:format>image/svg+xml</dc:format>
        <dc:type
           rdf:resource="http://purl.org/dc/dcmitype/StillImage" />
        <dc:title></dc:title>
      </cc:Work>
    </rdf:RDF>
  </metadata>
  <g
     id="layer1"
     inkscape:groupmode="layer"
     inkscape:label="Capa 1">
    <path
       d="m 74.839755,104.31825 c -0.738166,21.87121 -0.313677,43.76932 0.659675,65.6266 0.250878,5.63361 0.613714,11.26168 0.92057,16.89252 0.312335,4.10242 0.555985,8.21066 0.937006,12.30727 0.620025,6.66628 -0.274846,4.84152 1.473182,7.76401 0.0053,0.0539 0.767765,-0.0204 0.762508,-0.0743 v 0 c 1.118248,-3.17986 0.465484,-0.91286 0.273184,-7.80527 -0.114485,-4.10339 -0.275867,-8.20534 -0.413803,-12.30801 -0.679611,-18.42863 -1.349504,-36.85861 -2.182622,-55.28113 -0.223715,-4.94692 -0.509553,-9.89091 -0.731213,-14.83793 -0.117644,-2.62557 -0.191121,-5.25294 -0.286681,-7.8794 -0.06614,-1.46444 -0.132286,-2.92887 -0.19843,-4.39331 7.94e-4,-0.0858 -1.212598,-0.0968 -1.213376,-0.011 z"
       id="path25"
       style="fill:#241f1c;stroke-width:0.264583" />
    <path
       d="m 68.035674,199.94817 c 0.954522,-0.0598 1.916624,-0.0452 2.863565,-0.17927 4.471257,-0.63321 8.266112,-1.59105 12.627152,-2.96611 4.659085,-1.46903 10.165246,-3.50869 14.48935,-5.84792 1.934205,-1.04636 3.696779,-2.38283 5.545159,-3.57425 1.14097,-1.39349 2.69809,-2.53176 3.42289,-4.18048 1.70032,-3.86775 0.069,-6.96976 -2.62543,-9.84744 -1.81905,-1.94276 -4.03623,-3.49967 -6.281347,-4.92891 -6.11873,-3.89519 -10.146297,-5.03833 -16.861519,-7.59433 -6.584289,-1.8132 -7.274767,-2.24653 -13.453388,-3.17071 -1.060942,-0.1587 -2.133738,-0.34314 -3.205157,-0.28983 -0.169476,0.008 0.103888,0.37558 0.262366,0.43624 0.798743,0.30569 1.635863,0.58163 2.490361,0.61727 1.703832,0.0711 3.404746,-0.20026 5.107117,-0.30039 5.995715,-0.80807 13.787385,-1.39838 18.733466,-5.36699 1.564158,-1.25504 3.052384,-2.82448 3.749826,-4.70472 2.353955,-6.34606 -0.943743,-11.25215 -3.022407,-17.13442 C 85.065131,117.1132 75.945504,104.6832 67.24084,92.058962 62.515958,85.206543 57.559947,78.301995 53.501017,71.002852 52.264648,68.779506 51.308846,66.41135 50.212759,64.115597 c -0.999434,-4.115329 -1.94469,-2.993654 -0.219122,-4.395102 0.04012,-0.04553 -0.603779,-0.612984 -0.643906,-0.567454 v 0 c -2.628416,2.321626 -1.638541,0.685675 -1.001866,5.648184 1.00299,2.412032 1.829456,4.905296 3.008971,7.2361 3.755469,7.421073 8.705371,14.601995 13.346284,21.438143 8.534437,12.571382 17.683216,24.772692 24.982207,38.140032 2.015855,4.80178 5.683557,9.87385 3.734964,15.493 -0.586351,1.69087 -1.951021,3.08539 -3.362637,4.18548 -4.71995,3.67829 -12.499639,4.3013 -18.170977,5.23078 -1.684904,0.1797 -6.296443,0.36746 -8.172535,1.47247 -0.231875,0.13657 0.07382,0.643 0.325253,0.73891 0.951388,0.36292 2.010428,0.32833 3.007989,0.53259 6.639984,1.35957 5.702835,1.26501 13.036651,3.3863 6.519486,2.44578 10.532057,3.63417 16.579625,7.17016 2.170826,1.26927 4.31465,2.64608 6.16198,4.35222 2.38906,2.20647 4.29545,4.74073 2.74752,8.08373 -0.692,1.49448 -2.15571,2.49044 -3.23357,3.73566 -1.81635,1.11452 -3.559425,2.35839 -5.449063,3.34357 -4.261507,2.22177 -9.743268,4.23932 -14.273255,5.74739 -3.411617,1.13576 -8.475112,2.6338 -12.162412,3.36835 -0.90846,0.18097 -1.839939,0.2164 -2.759905,0.3246 -0.08255,0.0241 0.258169,1.19155 0.340719,1.16746 z"
       id="path27"
       style="fill:#241f1c;stroke-width:0.264583" />
    <path
       d="m 112.57183,188.247 c 0.76258,1.08303 0.30867,0.56763 1.39272,1.51834 0.0161,0.0268 0.39451,-0.20147 0.37837,-0.22823 v 0 c -0.53219,-1.19497 -0.24911,-0.6318 -0.83838,-1.69491 -0.0286,-0.066 -0.96133,0.33885 -0.93271,0.4048 z"
       id="path29"
       style="fill:#241f1c;stroke-width:0.264583" />
    <path
       d="m 132.75371,178.17601 c -0.19588,-2.70842 -0.48508,-5.69641 -1.91238,-8.08943 -0.3204,-0.53718 -0.59409,-1.36857 -1.21669,-1.42852 -0.89508,-0.0862 -1.65006,0.71534 -2.47508,1.07302 -0.66978,1.27758 -1.47798,2.49167 -2.00934,3.83274 -1.31758,3.32543 -2.32612,7.84977 -2.64684,11.38149 -0.15008,1.6526 -0.44186,7.29357 0.89012,9.23482 0.39906,0.58159 1.34666,0.42011 2.01999,0.63017 0.92273,-1.24133 2.11586,-2.32156 2.7682,-3.72398 1.84127,-3.95847 3.0999,-11.67259 3.6042,-15.60913 0.81393,-6.3536 1.11669,-13.03409 1.05182,-19.43963 -0.0272,-2.68563 -0.24059,-5.36615 -0.36089,-8.04922 -0.29562,-2.41848 -0.54523,-6.66938 -1.60403,-9.2323 -0.18132,-0.43888 -0.4697,-1.10908 -0.94278,-1.06799 -1.97601,0.17162 -2.08713,3.33129 -2.22998,4.3451 -0.22314,1.58367 -0.30683,3.18387 -0.46025,4.77581 -0.54991,9.06916 -0.45248,18.17603 0.25227,27.23482 0.37711,4.84736 1.25327,13.01534 2.47762,17.95331 0.47617,1.92044 1.30504,3.7358 1.95755,5.60371 0.75856,0.90571 1.21346,2.20001 2.27567,2.71714 2.73336,1.33073 4.38136,-1.52468 5.30213,-3.33552 0.82143,-1.61549 1.36112,-3.36815 1.84148,-5.11567 1.35119,-4.9156 1.34361,-7.18656 1.81536,-12.21997 -0.0332,-1.77411 0.0464,-3.55393 -0.0996,-5.32232 -0.11071,-1.34002 -0.30254,-2.68416 -0.6687,-3.97792 -0.87247,-3.08272 -3.05422,-4.63928 -4.71919,-0.44645 -0.5963,1.50163 -0.57336,3.18012 -0.86005,4.77018 0.0306,4.10584 -0.31456,7.46322 1.16699,11.41208 0.51936,1.38428 1.15747,2.90643 2.37397,3.74672 1.03883,0.71757 2.61094,1.01916 3.75618,0.48764 5.4921,-2.54893 6.82094,-8.9634 8.93288,-13.78482 3.45277,-11.49534 5.0573,-23.45001 4.37882,-35.45102 -0.0818,-1.44743 -0.85554,-10.62615 -2.84626,-12.80766 -0.59315,-0.65 -1.75588,-0.11916 -2.63381,-0.17874 -0.7362,2.33216 -1.74757,4.59472 -2.20859,6.99647 -1.36066,7.08855 -1.9439,19.45912 -2.06143,26.27945 -0.1393,8.08353 0.0831,19.06123 1.15631,27.24013 0.3863,2.94398 1.19898,5.81613 1.79848,8.72419 0.85161,1.37561 1.70322,2.75122 2.55482,4.12682 0.0337,0.0782 1.13953,-0.39902 1.10579,-0.47721 v 0 c -0.56629,-1.31487 -1.13258,-2.62973 -1.69886,-3.9446 -0.43578,-2.85698 -1.02843,-5.69441 -1.30734,-8.57094 -0.76352,-7.8748 -0.96117,-19.31347 -0.92643,-27.02038 0.0394,-8.74044 0.31471,-17.32625 1.11077,-26.02262 0.19129,-2.0897 0.56853,-4.1582 0.85279,-6.23729 2.00072,-1.24479 1.2842,-1.16345 2.13499,3.89504 0.44332,2.63581 0.68104,5.31042 0.76499,7.98194 0.36906,11.74406 -1.09569,23.45755 -4.17058,34.79055 -1.05004,2.76145 -3.10617,10.67237 -6.54193,13.15344 -0.76983,0.55592 -2.04804,0.67117 -2.84453,0.15417 -1.10352,-0.71628 -1.63151,-2.11671 -2.08284,-3.35248 -1.35403,-3.70744 -1.14417,-7.09429 -1.26613,-10.95152 0.1769,-1.48592 0.32802,-2.97513 0.53071,-4.45774 0.0938,-0.68632 -0.0105,-1.46075 0.35857,-2.04694 0.15868,-0.25201 0.70233,-0.16834 0.89129,0.0618 1.82301,2.22081 1.37102,8.65342 1.40774,11.09818 -0.54119,5.66789 -0.99021,11.46988 -3.21473,16.79736 -0.40404,0.96762 -0.9259,1.91232 -1.62605,2.69292 -0.31925,0.35594 -0.89802,0.82252 -1.31113,0.58179 -0.87437,-0.50953 -1.2251,-1.61112 -1.83765,-2.41668 -0.54939,-1.81185 -1.25242,-3.58406 -1.64817,-5.43555 -1.00101,-4.68325 -1.82803,-13.30361 -2.20103,-17.79893 -0.74635,-8.99473 -1.06402,-18.00995 -0.95881,-27.03491 0.0826,-1.56145 0.11667,-3.12623 0.24787,-4.68435 0.0793,-0.94148 0.36113,-1.86388 0.38306,-2.80843 0.009,-0.39292 -0.49172,-0.8044 -0.29135,-1.14253 0.15398,-0.25985 0.45311,0.44064 0.53498,0.73139 0.72101,2.56081 0.86723,6.72137 1.0549,9.04443 0.0629,2.6528 0.19591,5.30486 0.1886,7.9584 -0.0258,9.35201 -0.50185,18.86069 -2.26205,28.06606 -0.78182,4.0887 -1.5451,6.12941 -2.73343,9.7033 -2.10126,0.28665 -1.57505,0.59525 -1.85422,-3.2528 -0.39799,-5.48583 0.69161,-11.27446 2.43216,-16.45735 0.40835,-1.21595 1.01817,-2.35468 1.52726,-3.53202 0.27283,-0.42247 0.31594,-1.24852 0.81849,-1.2674 0.52954,-0.0199 0.77465,0.74205 1.04578,1.19736 1.37235,2.30458 1.62804,5.14321 2.10393,7.71897 0,0.0611 0.86366,0.0611 0.86366,0 z"
       id="path49"
       style="fill:#241f1c;stroke-width:0.264583" />
    <path
       d="m 167.26878,179.356 c 1.02473,-3.05959 1.1736,-6.36483 0.2203,-9.47874 -0.28253,-0.92285 -0.61913,-1.85568 -1.16881,-2.64897 -0.44821,-0.64687 -1.17223,-1.05035 -1.75834,-1.57552 -0.92521,0.19723 -2.00491,0.0431 -2.77563,0.5917 -2.27256,1.61749 -3.54047,5.78804 -4.07328,8.10861 -0.69328,3.01949 -1.23238,7.037 -0.0967,10.12469 0.30925,0.84077 1.14393,1.37897 1.71589,2.06846 0.92732,-0.21233 2.03457,-0.0484 2.78198,-0.637 1.69892,-1.33787 3.27514,-5.7654 3.85849,-7.53755 0.42815,-1.30067 0.71387,-2.64411 1.0482,-3.972 0.16797,-0.66716 0.57053,-1.33358 0.4585,-2.01237 -0.0494,-0.29916 -0.46232,0.39241 -0.69348,0.58862 0.31244,1.27745 0.9036,4.12676 1.679,5.06706 1.81736,2.20381 3.98625,1.14745 5.70792,-0.73835 3.05089,-3.34174 4.31928,-9.00545 5.63481,-12.96522 2.33936,-10.56967 3.07219,-21.42241 2.47305,-32.22265 -0.21579,-3.89005 -0.7955,-9.52239 -2.19759,-13.42088 -0.32142,-0.89371 -0.98077,-1.62671 -1.47116,-2.44007 -0.66084,0.61688 -1.80502,0.96422 -1.98251,1.85064 -0.95996,4.79425 -0.0352,24.43395 0.0684,26.68876 0.57867,12.60458 1.63763,27.26893 2.76868,39.83945 0.49399,5.49016 1.11912,10.96774 1.67868,16.4516 0.57904,3.28107 1.15808,6.56213 1.73712,9.84319 0.0121,0.12461 1.77425,-0.0458 1.76219,-0.17045 v 0 c -0.17958,-3.2985 -0.35916,-6.59701 -0.53874,-9.89551 -1.44767,-18.7359 -2.96479,-37.46616 -4.42532,-56.20102 -0.42607,-5.46538 -0.85378,-10.93068 -1.24977,-16.39832 -0.2347,-3.24062 -0.36146,-6.4892 -0.6423,-9.72616 -0.0516,-0.59429 -0.23583,-1.16951 -0.35375,-1.75426 0.35894,0.73471 0.85435,1.41727 1.07682,2.20413 1.11791,3.95409 1.48956,9.23614 1.63002,13.14523 0.38142,10.61471 -0.23672,21.27453 -2.17129,31.72639 -1.72328,5.84054 -1.75164,7.71172 -4.76188,12.49 -0.46202,0.73339 -0.94105,1.62227 -1.7558,1.91809 -1.89026,0.6863 -2.68863,-2.93306 -2.88539,-3.43072 -0.3207,-0.81109 -0.58839,-1.64215 -0.88258,-2.46323 -0.47357,-0.0898 -1.04847,-0.57578 -1.4207,-0.26954 -0.53668,0.44152 -0.46113,1.31186 -0.65679,1.9787 -1.09104,3.71837 -1.87976,7.58074 -4.15324,10.82012 -0.27801,0.39614 -0.72425,0.64212 -1.08638,0.96317 -0.42944,-0.51878 -1.08368,-0.91473 -1.28833,-1.55635 -0.91795,-2.87797 -0.39417,-6.78287 0.15936,-9.55334 0.60506,-3.02841 1.2039,-5.19065 3.1652,-7.48011 0.33544,-0.39156 0.85826,-0.57163 1.28738,-0.85744 0.49872,0.41103 1.11888,0.70838 1.49616,1.2331 0.52018,0.72346 0.85248,1.57561 1.13176,2.42177 0.97503,2.95414 0.88535,6.08487 0.18347,9.07438 -0.0147,0.0542 0.75175,0.26211 0.76645,0.20791 z"
       id="path51"
       style="fill:#241f1c;stroke-width:0.264583" />
    <path
       d="m 150.32566,113.69281 c 1.50388,-0.48345 -2.75025,-0.0613 -2.17018,0.39006 3.1588,2.45786 7.90204,1.93208 11.41929,2.01892 14.88261,0.36745 26.59082,-0.0931 41.80742,-0.41499 17.61571,-0.63976 36.26862,-1.21169 53.8789,-2.26254 6.88186,-0.41065 13.74978,-1.0287 20.62466,-1.54306 0.19994,-0.0599 -0.64741,-2.88767 -0.84736,-2.82776 v 0 c -6.9841,0.14295 -13.9706,0.19608 -20.95228,0.42885 -13.72534,0.45758 -40.18686,1.83643 -53.77435,2.51458 -7.94468,0.42028 -15.8893,0.8415 -23.83403,1.26083 -5.44911,0.28762 -10.89503,0.64464 -16.34747,0.86002 -20.06897,0.79275 -1.95957,-0.69823 -11.22388,0.72495 -0.0928,0.0143 0.13027,-0.13513 0.19541,-0.20269 0.48431,-0.062 0.96862,-0.12409 1.45293,-0.18613 0.0538,-0.0162 -0.17525,-0.77724 -0.22906,-0.76104 z"
       id="path53"
       style="fill:#241f1c;stroke-width:0.264583" />
    <path
       d="m 166.95111,147.38849 c 6.98494,0.716 14.06194,0.57407 21.0509,-0.0275 2.65648,-0.22868 5.29456,-0.6359 7.94184,-0.95385 0.11322,-0.0393 -0.44226,-1.64049 -0.55548,-1.60121 v 0 c -9.31117,0.71981 -18.64085,1.54377 -27.98996,1.35257 -0.087,-0.0316 -0.53428,1.19839 -0.4473,1.23002 z"
       id="path55"
       style="fill:#241f1c;stroke-width:0.264583" />
    <path
       d="m 188.89998,163.96241 c 0.20651,2.0169 0.0871,0.95148 0.36593,3.1954 0.002,0.0181 0.25825,-0.008 0.25643,-0.0258 v 0 c -0.2588,-2.25013 -0.10823,-1.18685 -0.43536,-3.19209 -0.002,-0.0132 -0.18858,0.009 -0.187,0.0224 z"
       id="path61"
       style="fill:#241f1c;stroke-width:0.264583" />
    <path
       d="m 189.75982,165.77351 c 0.0207,-1.17913 -0.10068,-2.35987 -0.25204,-3.52805 -0.0376,-0.29042 0.10497,-0.70455 -0.1383,-0.86758 -1.49807,-1.00399 -1.28138,1.45573 -1.32862,1.77885 -0.34864,4.38884 -0.1051,8.82264 0.48111,13.18139 0.3934,2.92514 0.91439,6.55769 2.41057,9.23621 0.4444,0.79558 1.23809,1.33749 1.85715,2.00624 0.83889,-0.11599 1.84415,0.16671 2.51669,-0.34797 1.74803,-1.33773 2.6107,-5.86755 2.88116,-7.49513 0.58021,-3.49169 0.67605,-7.3719 0.53502,-10.89925 -0.0626,-1.56641 -0.26817,-3.12384 -0.40226,-4.68576 -0.19012,-1.0021 -0.55892,-4.04922 -1.35347,-5.22237 -0.1849,-0.273 -0.61587,-0.69683 -0.86466,-0.48044 -1.68468,1.46525 -1.55055,4.39306 -1.63601,6.22703 -0.0795,1.70583 -0.0513,3.41498 -0.077,5.12247 0.33876,5.2114 0.16536,10.79871 2.28618,15.71379 0.74904,1.73593 2.13714,4.08465 4.52631,3.81963 1.23995,-0.13755 2.26575,-1.04497 3.39862,-1.56745 1.016,-1.23292 2.16748,-2.36572 3.04801,-3.69877 2.17395,-3.29118 3.66342,-6.93853 4.6512,-10.74602 0.7787,-3.00155 1.39464,-6.77952 0.75192,-9.9286 -0.18785,-0.92042 -0.80531,-1.69744 -1.20797,-2.54617 -0.71729,-0.12753 -1.50115,-0.71024 -2.15187,-0.38261 -2.55246,1.28516 -3.94748,5.23809 -4.66182,7.54694 -1.09436,3.53715 -1.74731,7.73412 -1.6392,11.44757 0.0465,1.59826 0.44099,3.16733 0.66149,4.751 0.62442,0.94949 0.93776,2.20326 1.87325,2.84846 2.52152,1.73911 5.31254,-0.50788 7.03561,-1.99558 1.40588,-1.21384 2.54875,-2.71077 3.68176,-4.18258 2.60913,-3.38936 3.51405,-5.34284 5.50744,-8.97867 0.45882,-0.82764 0.8531,-1.6945 1.37646,-2.48291 0.0436,-0.0657 0.18384,0.11139 0.15034,0.18283 -0.26014,0.55482 -0.77178,0.98213 -0.96865,1.56242 -0.38464,1.13381 -0.48634,2.34482 -0.75288,3.51206 -0.85529,3.74559 -0.95856,3.99361 -1.92089,7.54231 -0.24647,0.6649 -0.43628,1.35366 -0.73941,1.99472 -0.0418,0.0884 -0.10285,-0.19335 -0.069,-0.28507 0.18573,-0.50347 0.58278,-0.92414 0.70761,-1.44605 0.27135,-1.13449 0.28674,-2.31572 0.46776,-3.46808 0.611,-3.88968 0.74968,-4.23832 1.59081,-8.01894 0.23332,-0.73192 0.75747,-3.32546 1.75672,-4.08117 0.14275,-0.10796 0.033,0.35854 0.0823,0.53061 0.17609,0.61509 0.41782,1.21018 0.59231,1.82573 1.7959,6.33523 -0.1188,0.46833 2.13174,7.01924 0.16644,0.30083 1.59222,3.94402 3.09395,3.58779 2.64808,-0.62816 3.04296,-4.45611 3.36999,-6.26243 0.87781,-4.84859 0.88816,-9.17678 1.11657,-14.12055 -0.0467,-6.95804 0.0749,-9.02789 -0.46642,-15.77795 -0.14105,-1.75877 -0.3203,-3.51731 -0.60562,-5.25851 -0.13547,-0.82671 -0.01,-1.89056 -0.65374,-2.4267 -0.42355,-0.35277 -1.36047,0.0776 -1.54167,0.59817 -0.51176,1.47027 -0.19271,3.1076 -0.28906,4.66141 0.14829,9.71175 0.83054,19.44501 2.38209,29.04114 0.72536,4.48623 2.02077,11.3323 4.01847,15.70553 0.61258,1.34101 1.66487,2.43361 2.49731,3.65041 1.26644,-0.0207 2.68067,0.5319 3.79932,-0.0622 2.76094,-1.46622 5.06602,-6.99237 5.90463,-9.41335 1.38324,-3.99328 2.24582,-8.76981 2.18662,-13.01435 -0.025,-1.79 -0.45764,-3.55099 -0.68647,-5.32647 -0.54346,-1.15107 -0.82034,-2.4713 -1.63038,-3.4532 -1.41099,-1.71036 -3.5835,-1.61341 -4.94157,0.27443 -0.81249,1.12944 -1.16045,2.60208 -1.21829,3.9922 -0.20083,4.82637 1.54473,7.3216 3.44716,11.61928 5.40515,6.50395 2.34255,3.83237 9.04673,8.17366 0.0603,0.0579 0.87883,-0.79512 0.81851,-0.853 v 0 c -5.88667,-4.48365 -3.12766,-1.87024 -8.15722,-7.96478 -1.89766,-4.00339 -3.47687,-6.17761 -3.65141,-10.64967 -0.0129,-0.33121 0.78719,-7.19381 3.2673,-4.06912 0.70139,0.88368 0.90942,2.06502 1.36413,3.09753 0.18747,1.6782 0.55734,3.34597 0.56241,5.0346 0.0123,4.07927 -0.81189,8.67979 -2.05757,12.54358 -0.87704,2.72034 -2.42694,6.62175 -4.74319,8.68998 -0.50099,0.44734 -1.27265,0.4299 -1.90898,0.64485 -0.69026,-1.1298 -1.57737,-2.1608 -2.07078,-3.38939 -1.7103,-4.25858 -2.89761,-11.24299 -3.55959,-15.47922 -1.49087,-9.54056 -2.25042,-19.17206 -3.09954,-28.78363 -0.0765,-1.40888 0.0564,-2.84494 -0.22948,-4.22662 -0.0778,-0.37611 -0.69694,-1.18156 -0.81379,-0.81569 -0.23832,0.74617 0.25981,1.5464 0.33129,2.32644 0.63492,6.92914 0.68814,13.90187 0.77474,20.85279 -0.12984,5.14552 -0.0743,8.86526 -0.71098,13.88312 -0.17301,1.36339 -0.51889,2.69922 -0.78114,4.04828 -0.0995,0.51168 0.12311,1.23511 -0.30398,1.53394 -1.05896,0.74091 -2.98871,-3.95625 -2.42292,-3.02697 -0.41377,-1.17797 -0.85049,-2.34813 -1.24133,-3.5339 -0.24822,-0.7531 -1.31751,-5.05512 -2.30884,-5.89327 -1.41693,-1.198 -2.43071,0.3916 -2.88505,1.32632 -0.4548,0.93565 -0.69358,1.96166 -1.04036,2.94249 -0.82397,3.59245 -1.11871,4.455 -1.56762,8.16783 -0.20966,1.73399 -0.82221,4.50427 0.62047,6.11197 0.68969,0.76857 3.02336,-3.10933 1.90625,-2.44204 0.98681,-3.43403 1.22601,-4.00189 1.93652,-7.64898 0.34857,-1.78926 1.19393,-4.55858 -0.0853,-6.36522 -0.72382,-1.02225 -4.19843,4.16662 -2.60645,2.70678 -2.59683,4.51548 -5.21012,8.92865 -8.80751,12.74826 -0.69805,0.74117 -2.95437,3.49116 -4.74243,2.40293 -0.80298,-0.4887 -1.02855,-1.57368 -1.54282,-2.36052 -0.18179,-1.49621 -0.51596,-2.98171 -0.54537,-4.48864 -0.07,-3.58684 0.53738,-7.5955 1.48638,-11.04148 0.0523,-0.18989 1.95591,-5.89955 2.80354,-6.85177 0.28354,-0.31851 0.82192,-0.22767 1.23288,-0.3415 0.31003,0.70783 0.80597,1.36077 0.93008,2.12349 0.48916,3.00609 -0.14902,6.57661 -0.88755,9.42235 -1.31973,5.08524 -3.48116,9.83779 -6.94175,13.82211 -0.62845,0.48894 -1.11913,1.25023 -1.88535,1.46683 -2.03318,0.57475 -3.03919,-1.61316 -3.5975,-2.99357 -1.95605,-4.8363 -1.75023,-10.27006 -2.19183,-15.35532 -0.0278,-1.68239 -0.0889,-3.36457 -0.0833,-5.04718 0.004,-1.24511 0.20172,-2.4917 0.11277,-3.73364 -0.0405,-0.56554 -0.40773,-1.06687 -0.49667,-1.62684 -0.0131,-0.0826 0.18389,-0.19896 0.21876,-0.12293 0.24773,0.54018 0.39258,1.12591 0.50852,1.70877 0.21534,1.08265 0.322,2.18412 0.48301,3.27618 0.34791,5.08554 0.56871,10.12049 -0.11606,15.19841 -0.31046,2.30215 -0.68697,4.67576 -1.95064,6.68354 -0.18926,0.30069 -0.55369,0.44538 -0.83054,0.66807 -0.49579,-0.55473 -1.14763,-1.00229 -1.48739,-1.66419 -1.33304,-2.59698 -1.80276,-6.17915 -2.19495,-8.94724 -0.60712,-4.28496 -1.0144,-8.63342 -0.98523,-12.96405 -0.011,-0.44279 0.1607,-0.93006 -0.033,-1.32836 -0.1283,-0.26378 -0.55802,-0.54739 -0.79578,-0.37561 -0.22962,0.16588 0.11058,0.55568 0.16061,0.83449 0.20882,1.16385 0.33967,2.34563 0.68208,3.48149 0.005,0.0379 0.54056,-0.0278 0.53591,-0.0657 z"
       id="path63"
       style="fill:#241f1c;stroke-width:0.264583" />
    <path
       d="m 202.4554,152.61205 c 2.32298,0.10595 4.64467,0.24582 6.96896,0.31785 9.01314,0.27931 18.46293,0.36586 27.43863,0.39971 15.63636,0.059 31.25573,-0.13338 46.88639,-0.51833 2.33516,-0.17377 4.67032,-0.34754 7.00547,-0.5213 0.0953,0.0246 0.44278,-1.32322 0.34748,-1.34779 v 0 c -2.66189,-0.17967 -5.32376,-0.35935 -7.98563,-0.53902 -26.98256,-0.30074 -53.98182,-0.029 -80.94356,1.10957 -0.0777,0.0199 0.20452,1.11927 0.28226,1.09931 z"
       id="path65"
       style="fill:#241f1c;stroke-width:0.264583" />
    <path
       d="m 58.079475,213.69587 c 0.836195,0.47647 1.560296,1.2651 2.508581,1.42943 10.225392,1.77197 28.97574,0.99278 36.900892,0.7654 12.003122,-0.34439 23.997482,-0.95131 35.992382,-1.51326 30.7175,-1.43908 61.42367,-3.11055 92.136,-4.65596 17.23272,-0.71141 34.46544,-1.42282 51.69817,-2.13424 0.43321,-0.12671 -1.35882,-6.25338 -1.79202,-6.12666 v 0 c -17.2788,0.65458 -34.5576,1.30917 -51.8364,1.96376 -51.62821,3.07592 -41.92144,2.30657 -91.74679,5.99139 -11.85111,0.87645 -23.69508,1.84761 -35.545455,2.734 -5.981533,0.44742 -26.107181,2.27008 -35.060022,1.91244 -0.809225,-0.0323 -1.534964,-0.51715 -2.302444,-0.77573 -0.02895,-0.0674 -0.981844,0.34205 -0.952894,0.40943 z"
       id="path67"
       style="fill:#241f1c;stroke-width:0.264583" />
  </g>
</svg>
